<svg width="27" height="26" viewBox="0 0 27 26" fill="none" xmlns="http://www.w3.org/2000/svg">
<path fill-rule="evenodd" clip-rule="evenodd" d="M13.2485 26C25.7894 26 26.2485 24 26.2485 13C26.2485 0 23.9992 0 13.2485 0C2.00003 0 0.248474 1.5 0.248474 13C0.248474 25 2.50003 26 13.2485 26ZM18.0351 3.24764C15.6342 2.58153 13.7193 2.41716 11.9854 2.7593C10.2481 3.10212 8.83237 3.92709 7.40483 4.97755C5.97522 6.02952 4.61727 7.38406 3.75706 9.12256C2.88392 10.8872 2.56249 12.9716 3.1019 15.3795C3.66497 17.8932 5.38186 20.0045 7.31507 21.4579C9.23386 22.9005 11.5723 23.8492 13.5897 23.8119C15.227 23.7816 17.0139 22.8991 18.4548 21.8631C19.9184 20.8106 21.284 19.4132 22.0072 18.0472C22.4841 17.1464 22.5162 16.168 22.3596 15.2893C22.2034 14.4133 21.8463 13.5508 21.4298 12.7775C20.5999 11.2363 19.4152 9.83218 18.5732 9.04852C18.4864 8.9677 18.3976 8.88311 18.3065 8.79624C17.6651 8.18482 16.9054 7.46067 15.8624 7.14685C14.6288 6.7757 13.2004 6.9954 11.252 7.64486C10.8076 7.79299 10.418 8.06177 10.113 8.31435C9.79446 8.57814 9.49309 8.88763 9.22575 9.19658C8.69915 9.80513 8.22291 10.507 7.95151 11.0498C7.23185 12.4891 6.90272 14.6197 8.04412 16.2746C8.70024 17.2259 9.88351 18.1363 11.0752 18.6947C11.6847 18.9803 12.3617 19.2054 13.0419 19.2796C13.7176 19.3534 14.4922 19.2869 15.1855 18.871C15.9584 18.4074 17.0771 17.6692 17.563 16.554C17.8346 15.9305 17.8947 15.2278 17.6644 14.4979C17.4455 13.8039 16.9905 13.1655 16.3758 12.5659C15.8631 12.0658 15.122 11.5522 14.2671 11.473C13.8048 11.4302 13.2984 11.517 12.8392 11.8193C12.3891 12.1156 12.0915 12.5481 11.9051 13.0119C11.6375 13.6781 11.9606 14.4352 12.6269 14.7028C13.2302 14.9452 13.9081 14.703 14.2294 14.1603C14.3275 14.2222 14.4409 14.3107 14.5603 14.4271C14.9913 14.8475 15.1384 15.1327 15.1849 15.2801C15.22 15.3915 15.2088 15.4479 15.1794 15.5155C15.1346 15.6182 15.0222 15.7804 14.7748 15.9958C14.5318 16.2072 14.218 16.4195 13.848 16.6414C13.7967 16.6722 13.6469 16.7303 13.3241 16.695C13.0058 16.6602 12.6101 16.5426 12.1784 16.3403C11.2877 15.9229 10.5143 15.2767 10.1844 14.7984C9.7896 14.226 9.78664 13.1933 10.277 12.2125C10.4334 11.8997 10.7779 11.3763 11.1918 10.8979C11.3948 10.6634 11.5937 10.4639 11.7713 10.3169C11.8592 10.2441 11.9329 10.1916 11.9909 10.156C12.0434 10.1237 12.0709 10.1128 12.0742 10.1115C12.0744 10.1114 12.0746 10.1113 12.0746 10.1113L12.0742 10.1114C13.9307 9.49261 14.6955 9.5109 15.1133 9.63661C15.5276 9.76127 15.8024 10.0181 16.5394 10.7068L16.5396 10.707C16.6211 10.7832 16.7082 10.8646 16.8018 10.9517C17.4603 11.5647 18.4606 12.7474 19.1407 14.0103C19.4793 14.639 19.7085 15.2328 19.7999 15.7457C19.8909 16.2558 19.832 16.599 19.7094 16.8307C19.2334 17.7297 18.1974 18.8457 16.9369 19.7521C15.6536 20.6749 14.3938 21.1965 13.5415 21.2123C12.2831 21.2356 10.4995 20.5991 8.87747 19.3797C7.26988 18.1711 6.02713 16.5438 5.63902 14.8112C5.22725 12.973 5.48296 11.4972 6.0874 10.2756C6.70477 9.02789 7.72483 7.97014 8.9458 7.07168C10.2424 6.1176 11.295 5.54567 12.4888 5.31011C13.686 5.07386 15.1652 5.14961 17.3399 5.753C17.5253 5.80442 17.85 5.97649 18.3055 6.36527C18.7427 6.73839 19.2196 7.24093 19.7114 7.83234C20.6942 9.01415 21.6562 10.4535 22.3853 11.6686C22.7547 12.2843 23.5532 12.4839 24.1689 12.1145C24.7845 11.7451 24.9842 10.9466 24.6148 10.3309C23.8438 9.04606 22.8059 7.48712 21.7105 6.16993C21.1632 5.51183 20.5816 4.88969 19.9934 4.38764C19.4235 3.90125 18.756 3.44767 18.0351 3.24764Z" fill="url(#paint0_linear_1053_190)"/>
<defs>
<linearGradient id="paint0_linear_1053_190" x1="13.2485" y1="0" x2="13.2485" y2="26" gradientUnits="userSpaceOnUse">
<stop stop-color="#F1816D"/>
<stop offset="1" stop-color="#EC6D54"/>
</linearGradient>
</defs>
</svg>
