<svg width="78" height="72" viewBox="0 0 78 72" fill="none" xmlns="http://www.w3.org/2000/svg">
<path d="M77.7857 30.25C77.7857 51.079 58.9362 71.5 38.1071 71.5C17.2781 71.5 0 59.329 0 38.5C0 17.671 10.9924 0 31.8214 0C52.6505 0 77.7857 9.42097 77.7857 30.25Z" fill="#5B4AEE"/>
<path d="M68.3571 32.2139C68.3571 48.0526 48.8387 64.0353 33 64.0353C17.1613 64.0353 8.64286 51.9812 8.64286 36.1424C8.64286 20.3037 21.4827 7.46387 37.3214 7.46387C53.1602 7.46387 68.3571 16.3751 68.3571 32.2139Z" fill="#6453FE"/>
<path d="M55.0073 36.1429C55.0073 45.4725 47.4441 53.0357 38.1144 53.0357C28.7848 53.0357 22.7857 42.3442 22.7857 33.0145C22.7857 23.6849 28.7848 19.25 38.1144 19.25C47.4441 19.25 55.0073 26.8132 55.0073 36.1429Z" fill="#7F71FF"/>
</svg>
