<svg width="134" height="44" viewBox="0 0 134 44" fill="none" xmlns="http://www.w3.org/2000/svg">
<path fill-rule="evenodd" clip-rule="evenodd" d="M17.2485 35C29.7894 35 30.2485 33 30.2485 22C30.2485 9 27.9992 9 17.2485 9C6.00003 9 4.24847 10.5 4.24847 22C4.24847 34 6.50003 35 17.2485 35ZM22.0351 12.2476C19.6342 11.5815 17.7193 11.4172 15.9854 11.7593C14.2481 12.1021 12.8324 12.9271 11.4048 13.9775C9.97522 15.0295 8.61727 16.3841 7.75706 18.1226C6.88392 19.8872 6.56249 21.9716 7.1019 24.3795C7.66497 26.8932 9.38186 29.0045 11.3151 30.4579C13.2339 31.9005 15.5723 32.8492 17.5897 32.8119C19.227 32.7816 21.0139 31.8991 22.4548 30.8631C23.9184 29.8106 25.284 28.4132 26.0072 27.0472C26.4841 26.1464 26.5162 25.168 26.3596 24.2893C26.2034 23.4133 25.8463 22.5508 25.4298 21.7775C24.5999 20.2363 23.4152 18.8322 22.5732 18.0485C22.4864 17.9677 22.3976 17.8831 22.3065 17.7962C21.6651 17.1848 20.9054 16.4607 19.8624 16.1469C18.6288 15.7757 17.2004 15.9954 15.252 16.6449C14.8076 16.793 14.418 17.0618 14.113 17.3143C13.7945 17.5781 13.4931 17.8876 13.2257 18.1966C12.6992 18.8051 12.2229 19.507 11.9515 20.0498C11.2319 21.4891 10.9027 23.6197 12.0441 25.2746C12.7002 26.2259 13.8835 27.1363 15.0752 27.6947C15.6847 27.9803 16.3617 28.2054 17.0419 28.2796C17.7176 28.3534 18.4922 28.2869 19.1855 27.871C19.9584 27.4074 21.0771 26.6692 21.563 25.554C21.8346 24.9305 21.8947 24.2278 21.6644 23.4979C21.4455 22.8039 20.9905 22.1655 20.3758 21.5659C19.8631 21.0658 19.122 20.5522 18.2671 20.473C17.8048 20.4302 17.2984 20.517 16.8392 20.8193C16.3891 21.1156 16.0915 21.5481 15.9051 22.0119C15.6375 22.6781 15.9606 23.4352 16.6269 23.7028C17.2302 23.9452 17.9081 23.703 18.2294 23.1603C18.3275 23.2222 18.4409 23.3107 18.5603 23.4271C18.9913 23.8475 19.1384 24.1327 19.1849 24.2801C19.22 24.3915 19.2088 24.4479 19.1794 24.5155C19.1346 24.6182 19.0222 24.7804 18.7748 24.9958C18.5318 25.2072 18.218 25.4195 17.848 25.6414C17.7967 25.6722 17.6469 25.7303 17.3241 25.695C17.0058 25.6602 16.6101 25.5426 16.1784 25.3403C15.2877 24.9229 14.5143 24.2767 14.1844 23.7984C13.7896 23.226 13.7866 22.1933 14.277 21.2125C14.4334 20.8997 14.7779 20.3763 15.1918 19.8979C15.3948 19.6634 15.5937 19.4639 15.7713 19.3169C15.8592 19.2441 15.9329 19.1916 15.9909 19.156C16.0434 19.1237 16.0709 19.1128 16.0742 19.1115C16.0744 19.1114 16.0746 19.1113 16.0746 19.1113L16.0742 19.1114C17.9307 18.4926 18.6955 18.5109 19.1133 18.6366C19.5276 18.7613 19.8024 19.0181 20.5394 19.7068L20.5396 19.707C20.6211 19.7832 20.7082 19.8646 20.8018 19.9517C21.4603 20.5647 22.4606 21.7474 23.1407 23.0103C23.4793 23.639 23.7085 24.2328 23.7999 24.7457C23.8909 25.2558 23.832 25.599 23.7094 25.8307C23.2334 26.7297 22.1974 27.8457 20.9369 28.7521C19.6536 29.6749 18.3938 30.1965 17.5415 30.2123C16.2831 30.2356 14.4995 29.5991 12.8775 28.3797C11.2699 27.1711 10.0271 25.5438 9.63902 23.8112C9.22725 21.973 9.48296 20.4972 10.0874 19.2756C10.7048 18.0279 11.7248 16.9701 12.9458 16.0717C14.2424 15.1176 15.295 14.5457 16.4888 14.3101C17.686 14.0739 19.1652 14.1496 21.3399 14.753C21.5253 14.8044 21.85 14.9765 22.3055 15.3653C22.7427 15.7384 23.2196 16.2409 23.7114 16.8323C24.6942 18.0142 25.6562 19.4535 26.3853 20.6686C26.7547 21.2843 27.5532 21.4839 28.1689 21.1145C28.7845 20.7451 28.9842 19.9466 28.6148 19.3309C27.8438 18.0461 26.8059 16.4871 25.7105 15.1699C25.1632 14.5118 24.5816 13.8897 23.9934 13.3876C23.4235 12.9013 22.756 12.4477 22.0351 12.2476Z" fill="url(#paint0_linear_1053_181)"/>
<path d="M45.2992 34.5415C43.1332 34.5415 41.2267 34.0451 39.5796 33.0524C37.9326 32.0371 36.6465 30.5931 35.7214 28.7204C34.7964 26.8477 34.3338 24.614 34.3338 22.0193C34.3338 19.4472 34.7851 17.2248 35.6876 15.3521C36.6127 13.4569 37.8987 12.0016 39.5458 10.9863C41.1928 9.9484 43.1219 9.42947 45.3331 9.42947C48.3113 9.42947 50.624 10.174 52.271 11.6632C53.9181 13.1523 54.9898 15.2167 55.4862 17.8566L51.6618 18.0596C51.346 16.4126 50.6691 15.1265 49.6312 14.2014C48.5933 13.2538 47.1606 12.78 45.3331 12.78C43.8665 12.78 42.5917 13.1523 41.5087 13.8968C40.4483 14.6414 39.6135 15.7018 39.0043 17.0781C38.4177 18.4545 38.1243 20.1015 38.1243 22.0193C38.1243 23.9371 38.4177 25.5842 39.0043 26.9605C39.6135 28.3368 40.4596 29.386 41.5426 30.108C42.6256 30.83 43.8778 31.191 45.2992 31.191C47.2396 31.191 48.74 30.6833 49.8004 29.668C50.8834 28.6301 51.5603 27.2087 51.831 25.4037L55.6554 25.6068C55.3621 27.4343 54.7755 29.0137 53.8955 30.3449C53.0156 31.6761 51.8536 32.7139 50.4096 33.4585C48.9656 34.1805 47.2621 34.5415 45.2992 34.5415ZM64.965 34.4061C63.2503 34.4061 61.7499 34.0226 60.4638 33.2554C59.1778 32.4883 58.185 31.394 57.4856 29.9726C56.7862 28.5512 56.4364 26.8928 56.4364 24.9976C56.4364 23.0798 56.7862 21.4214 57.4856 20.0225C58.185 18.6237 59.1778 17.5407 60.4638 16.7736C61.7499 15.9839 63.2503 15.589 64.965 15.589C66.6798 15.589 68.1802 15.9839 69.4663 16.7736C70.7523 17.5407 71.7451 18.6237 72.4445 20.0225C73.1439 21.4214 73.4937 23.0798 73.4937 24.9976C73.4937 26.8928 73.1439 28.5512 72.4445 29.9726C71.7451 31.394 70.7523 32.4883 69.4663 33.2554C68.1802 34.0226 66.6798 34.4061 64.965 34.4061ZM64.965 31.2925C66.4993 31.2925 67.6838 30.7397 68.5186 29.6342C69.3535 28.506 69.7709 26.9605 69.7709 24.9976C69.7709 23.0346 69.3535 21.5004 68.5186 20.3948C67.6838 19.2667 66.4993 18.7026 64.965 18.7026C63.4534 18.7026 62.2688 19.2667 61.4115 20.3948C60.5766 21.5004 60.1592 23.0346 60.1592 24.9976C60.1592 26.9605 60.5766 28.506 61.4115 29.6342C62.2688 30.7397 63.4534 31.2925 64.965 31.2925ZM82.3649 34.4061C80.6728 34.4061 79.24 34.1467 78.0668 33.6277C76.9161 33.1088 76.0249 32.3981 75.3931 31.4956C74.7614 30.5705 74.4004 29.5101 74.3101 28.3143L77.9991 28.145C78.1796 29.1378 78.6083 29.9275 79.2852 30.5141C79.962 31.1007 80.9886 31.394 82.3649 31.394C83.4931 31.394 84.3843 31.2135 85.0386 30.8525C85.6929 30.4915 86.0201 29.9162 86.0201 29.1265C86.0201 28.6978 85.9073 28.3368 85.6816 28.0435C85.4786 27.7276 85.0724 27.4682 84.4633 27.2651C83.8541 27.0395 82.9516 26.8251 81.7558 26.6221C79.9733 26.2836 78.5744 25.8888 77.5591 25.4375C76.5438 24.9863 75.8218 24.4109 75.3931 23.7115C74.9645 23.0121 74.7501 22.166 74.7501 21.1732C74.7501 19.5262 75.3593 18.1837 76.5777 17.1458C77.8186 16.108 79.601 15.589 81.925 15.589C83.4818 15.589 84.7904 15.8598 85.8508 16.4013C86.9113 16.9202 87.7348 17.6309 88.3214 18.5334C88.9306 19.4134 89.3142 20.4061 89.4721 21.5117L85.7832 21.7147C85.6703 21.083 85.4447 20.5415 85.1063 20.0902C84.7904 19.6164 84.3617 19.2554 83.8202 19.0072C83.2787 18.7365 82.6357 18.6011 81.8911 18.6011C80.7404 18.6011 79.8831 18.8267 79.319 19.278C78.7549 19.7292 78.4729 20.3159 78.4729 21.0379C78.4729 21.5794 78.597 22.0193 78.8452 22.3578C79.1159 22.6962 79.5446 22.9782 80.1313 23.2039C80.7179 23.4069 81.4963 23.5874 82.4665 23.7454C84.3392 24.0612 85.8057 24.4561 86.8662 24.9299C87.9266 25.3811 88.6712 25.9452 89.0998 26.6221C89.5285 27.2989 89.7429 28.1225 89.7429 29.0927C89.7429 30.2208 89.427 31.1797 88.7952 31.9694C88.1635 32.7591 87.2948 33.3683 86.1893 33.7969C85.0837 34.2031 83.8089 34.4061 82.3649 34.4061ZM91.6812 34V9.97097H95.2687V20.0564L94.8287 19.9887C95.0317 18.9734 95.404 18.1499 95.9455 17.5181C96.487 16.8638 97.1526 16.3787 97.9423 16.0628C98.732 15.747 99.6006 15.589 100.548 15.589C101.857 15.589 102.962 15.8823 103.865 16.469C104.767 17.033 105.444 17.834 105.896 18.8719C106.369 19.9097 106.606 21.0943 106.606 22.4255V34H103.019V23.3731C103.019 21.7486 102.737 20.5528 102.173 19.7856C101.631 18.996 100.774 18.6011 99.6006 18.6011C98.292 18.6011 97.2429 19.0185 96.4532 19.8533C95.6635 20.6656 95.2687 21.8614 95.2687 23.4408V34H91.6812ZM114.664 34.4061C112.791 34.4061 111.291 33.9774 110.163 33.1201C109.057 32.2627 108.504 31.0556 108.504 29.4988C108.504 27.942 108.967 26.7349 109.892 25.8775C110.839 24.9976 112.295 24.3658 114.258 23.9823L120.451 22.7977C120.451 21.3989 120.124 20.361 119.47 19.6841C118.815 18.9847 117.845 18.635 116.559 18.635C115.408 18.635 114.506 18.8944 113.851 19.4134C113.197 19.9097 112.746 20.6543 112.498 21.647L108.809 21.4101C109.147 19.6051 109.982 18.1837 111.313 17.1458C112.667 16.108 114.416 15.589 116.559 15.589C118.996 15.589 120.846 16.2433 122.109 17.552C123.395 18.838 124.038 20.6543 124.038 23.0008V30.0064C124.038 30.4351 124.106 30.7397 124.242 30.9202C124.399 31.0782 124.648 31.1571 124.986 31.1571H125.629V34C125.516 34.0226 125.336 34.0451 125.088 34.0677C124.839 34.0902 124.58 34.1015 124.309 34.1015C123.542 34.1015 122.876 33.9774 122.312 33.7293C121.771 33.4811 121.365 33.0749 121.094 32.5109C120.823 31.9243 120.688 31.1458 120.688 30.1757L121.06 30.3449C120.88 31.1346 120.485 31.834 119.876 32.4432C119.289 33.0524 118.533 33.5375 117.608 33.8985C116.706 34.2369 115.724 34.4061 114.664 34.4061ZM115.239 31.5633C116.322 31.5633 117.247 31.3602 118.014 30.9541C118.781 30.5254 119.379 29.9388 119.808 29.1942C120.237 28.4496 120.451 27.6035 120.451 26.6559V25.5052L115.171 26.5205C114.088 26.7236 113.321 27.0508 112.87 27.502C112.441 27.9307 112.227 28.4835 112.227 29.1603C112.227 29.9275 112.486 30.5254 113.005 30.9541C113.547 31.3602 114.291 31.5633 115.239 31.5633Z" fill="#EAEAEA"/>
<defs>
<linearGradient id="paint0_linear_1053_181" x1="17.2485" y1="9" x2="17.2485" y2="35" gradientUnits="userSpaceOnUse">
<stop stop-color="#F1816D"/>
<stop offset="1" stop-color="#EC6D54"/>
</linearGradient>
</defs>
</svg>
