<svg width="293" height="72" viewBox="0 0 293 72" fill="none" xmlns="http://www.w3.org/2000/svg">
<path d="M77.7857 30.25C77.7857 51.079 58.9362 71.5 38.1071 71.5C17.2781 71.5 0 59.329 0 38.5C0 17.671 10.9924 0 31.8214 0C52.6505 0 77.7857 9.42097 77.7857 30.25Z" fill="#5B4AEE"/>
<path d="M68.3571 32.2139C68.3571 48.0526 48.8387 64.0353 33 64.0353C17.1613 64.0353 8.64286 51.9812 8.64286 36.1424C8.64286 20.3037 21.4827 7.46387 37.3214 7.46387C53.1602 7.46387 68.3571 16.3751 68.3571 32.2139Z" fill="#6453FE"/>
<path d="M55.0073 36.1429C55.0073 45.4725 47.4441 53.0357 38.1144 53.0357C28.7848 53.0357 22.7857 42.3442 22.7857 33.0145C22.7857 23.6849 28.7848 19.25 38.1144 19.25C47.4441 19.25 55.0073 26.8132 55.0073 36.1429Z" fill="#7F71FF"/>
<path d="M110.457 63.0703C103.934 63.0703 98.7606 61.2355 94.9382 57.566C91.1158 53.8456 89.2046 48.4943 89.2046 41.5121V28.9747C89.2046 21.9924 91.1158 16.6666 94.9382 12.9971C98.7606 9.27667 103.934 7.41645 110.457 7.41645C116.879 7.41645 121.822 9.20022 125.288 12.7678C128.804 16.3353 130.563 21.2025 130.563 27.3693V27.8279H122.383V27.1399C122.383 23.5214 121.389 20.5654 119.401 18.272C117.465 15.9786 114.483 14.8319 110.457 14.8319C106.38 14.8319 103.195 16.0805 100.901 18.5778C98.6077 21.0241 97.461 24.4388 97.461 28.8218V41.665C97.461 45.997 98.6077 49.4116 100.901 51.9089C103.195 54.4062 106.38 55.6549 110.457 55.6549C114.483 55.6549 117.465 54.5081 119.401 52.2147C121.389 49.8703 122.383 46.9143 122.383 43.3468V42.0472H130.563V43.1175C130.563 49.2842 128.804 54.1514 125.288 57.7189C121.822 61.2865 116.879 63.0703 110.457 63.0703ZM152.242 63.0703C148.47 63.0703 145.106 62.3058 142.151 60.7768C139.246 59.1969 136.952 56.9545 135.27 54.0495C133.588 51.1444 132.747 47.7043 132.747 43.729V42.5823C132.747 38.607 133.588 35.1924 135.27 32.3384C136.952 29.4333 139.246 27.1909 142.151 25.611C145.106 24.031 148.47 23.2411 152.242 23.2411C156.013 23.2411 159.377 24.031 162.333 25.611C165.289 27.1909 167.608 29.4333 169.289 32.3384C170.971 35.1924 171.812 38.607 171.812 42.5823V43.729C171.812 47.7043 170.971 51.1444 169.289 54.0495C167.608 56.9545 165.289 59.1969 162.333 60.7768C159.377 62.3058 156.013 63.0703 152.242 63.0703ZM152.242 56.0371C155.707 56.0371 158.51 54.9413 160.651 52.7498C162.842 50.5074 163.938 47.424 163.938 43.4997V42.8117C163.938 38.8874 162.868 35.8295 160.727 33.638C158.587 31.3955 155.758 30.2743 152.242 30.2743C148.827 30.2743 146.024 31.3955 143.832 33.638C141.692 35.8295 140.622 38.8874 140.622 42.8117V43.4997C140.622 47.424 141.692 50.5074 143.832 52.7498C146.024 54.9413 148.827 56.0371 152.242 56.0371ZM191.706 63.0703C186.916 63.0703 182.94 62 179.781 59.8595C176.621 57.7189 174.684 54.4827 173.971 50.1506L181.31 48.3923C181.717 50.4819 182.405 52.1383 183.374 53.3614C184.342 54.5846 185.54 55.451 186.967 55.9606C188.445 56.4703 190.025 56.7251 191.706 56.7251C194.204 56.7251 196.115 56.241 197.44 55.2726C198.816 54.3043 199.504 53.0556 199.504 51.5267C199.504 49.9977 198.867 48.8765 197.593 48.163C196.319 47.4495 194.433 46.8634 191.936 46.4047L189.337 45.946C186.788 45.4873 184.469 44.8248 182.38 43.9584C180.29 43.092 178.634 41.8943 177.411 40.3653C176.188 38.8364 175.576 36.8742 175.576 34.4789C175.576 30.9113 176.901 28.1592 179.551 26.2225C182.201 24.2349 185.718 23.2411 190.101 23.2411C194.331 23.2411 197.797 24.2094 200.498 26.1461C203.25 28.0318 205.034 30.6055 205.849 33.8673L198.51 35.9314C198.052 33.638 197.083 32.0326 195.605 31.1152C194.127 30.1469 192.293 29.6627 190.101 29.6627C187.961 29.6627 186.279 30.0704 185.056 30.8858C183.832 31.6503 183.221 32.7461 183.221 34.1731C183.221 35.702 183.807 36.8233 184.979 37.5368C186.202 38.2503 187.833 38.7854 189.872 39.1422L192.547 39.6009C195.249 40.0596 197.72 40.6966 199.963 41.5121C202.205 42.3275 203.964 43.4997 205.238 45.0286C206.563 46.5576 207.225 48.5962 207.225 51.1444C207.225 54.9159 205.824 57.8463 203.021 59.9359C200.218 62.0255 196.446 63.0703 191.706 63.0703ZM211.078 62V8.48671H218.952V29.6627H220.175C220.684 28.6943 221.398 27.7515 222.315 26.8341C223.284 25.9168 224.532 25.1778 226.061 24.6171C227.641 24.0056 229.629 23.6998 232.024 23.6998C234.878 23.6998 237.401 24.3368 239.592 25.611C241.835 26.8851 243.593 28.6943 244.867 31.0387C246.141 33.3322 246.779 36.1098 246.779 39.3715V62H238.904V39.9831C238.904 36.7213 238.089 34.326 236.458 32.797C234.827 31.2171 232.585 30.4272 229.731 30.4272C226.469 30.4272 223.844 31.4974 221.857 33.638C219.92 35.7785 218.952 38.8874 218.952 42.9646V62H211.078ZM264.456 63.0703C261.755 63.0703 259.334 62.6116 257.193 61.6942C255.104 60.7768 253.422 59.4263 252.148 57.6425C250.925 55.8587 250.313 53.6927 250.313 51.1444C250.313 48.5452 250.925 46.4047 252.148 44.7229C253.422 42.99 255.129 41.6904 257.27 40.824C259.461 39.9576 261.933 39.5244 264.685 39.5244H276.152V37.0781C276.152 34.8866 275.49 33.1283 274.165 31.8032C272.84 30.4781 270.801 29.8156 268.049 29.8156C265.348 29.8156 263.284 30.4526 261.857 31.7268C260.43 33.0009 259.487 34.6573 259.028 36.6959L251.689 34.326C252.301 32.2874 253.269 30.4526 254.594 28.8218C255.97 27.1399 257.779 25.7893 260.022 24.77C262.264 23.7507 264.965 23.2411 268.125 23.2411C273.018 23.2411 276.866 24.4897 279.669 26.987C282.472 29.4843 283.874 33.0264 283.874 37.6132V53.1321C283.874 54.661 284.587 55.4255 286.014 55.4255H289.225V62H283.338C281.555 62 280.102 61.5413 278.981 60.6239C277.86 59.7066 277.299 58.4579 277.299 56.878V56.6487H276.152C275.745 57.4131 275.133 58.305 274.318 59.3243C273.502 60.3436 272.304 61.2355 270.725 62C269.145 62.7135 267.055 63.0703 264.456 63.0703ZM265.603 56.5722C268.762 56.5722 271.311 55.6803 273.247 53.8966C275.184 52.0618 276.152 49.5645 276.152 46.4047V45.6402H265.144C263.054 45.6402 261.372 46.0989 260.098 47.0163C258.824 47.8827 258.187 49.1823 258.187 50.9151C258.187 52.6479 258.85 54.024 260.175 55.0433C261.5 56.0626 263.309 56.5722 265.603 56.5722Z" fill="white"/>
</svg>
